<?xml version="1.0" encoding="utf-8" standalone="no"?>
<!DOCTYPE svg PUBLIC "-//W3C//DTD SVG 1.1//EN"
  "http://www.w3.org/Graphics/SVG/1.1/DTD/svg11.dtd">
<svg xmlns:xlink="http://www.w3.org/1999/xlink" width="712.8pt" height="280.8pt" viewBox="0 0 712.8 280.8" xmlns="http://www.w3.org/2000/svg" version="1.1">
 <metadata>
  <rdf:RDF xmlns:dc="http://purl.org/dc/elements/1.1/" xmlns:cc="http://creativecommons.org/ns#" xmlns:rdf="http://www.w3.org/1999/02/22-rdf-syntax-ns#">
   <cc:Work>
    <dc:type rdf:resource="http://purl.org/dc/dcmitype/StillImage"/>
    <dc:date>2025-12-17T17:19:59.078269</dc:date>
    <dc:format>image/svg+xml</dc:format>
    <dc:creator>
     <cc:Agent>
      <dc:title>Matplotlib v3.10.8, https://matplotlib.org/</dc:title>
     </cc:Agent>
    </dc:creator>
   </cc:Work>
  </rdf:RDF>
 </metadata>
 <defs>
  <style type="text/css">*{stroke-linejoin: round; stroke-linecap: butt}</style>
 </defs>
 <g id="figure_1">
  <g id="patch_1">
   <path d="M 0 280.8 
L 712.8 280.8 
L 712.8 0 
L 0 0 
z
" style="fill: #ffffff"/>
  </g>
  <g id="axes_1">
   <g id="patch_2">
    <path d="M 21.168 173.7 
L 132.912 173.7 
L 132.912 73.8 
L 21.168 73.8 
z
" clip-path="url(#p1c94910b71)" style="fill: #2e86ab; stroke: #1a5276; stroke-width: 2; stroke-linejoin: miter"/>
   </g>
   <g id="patch_3">
    <path d="M 230.688 173.7 
L 342.432 173.7 
L 342.432 73.8 
L 230.688 73.8 
z
" clip-path="url(#p1c94910b71)" style="fill: #2e86ab; stroke: #1a5276; stroke-width: 2; stroke-linejoin: miter"/>
   </g>
   <g id="patch_4">
    <path d="M 440.208 173.7 
L 551.952 173.7 
L 551.952 73.8 
L 440.208 73.8 
z
" clip-path="url(#p1c94910b71)" style="fill: #2e86ab; stroke: #1a5276; stroke-width: 2; stroke-linejoin: miter"/>
   </g>
   <g id="text_1">
    <!-- Entry 1 -->
    <g style="fill: #ffffff" transform="translate(60.09 122.961406) scale(0.1 -0.1)">
     <defs>
      <path id="Arial-BoldMT-45" d="M 466 0 
L 466 4581 
L 3863 4581 
L 3863 3806 
L 1391 3806 
L 1391 2791 
L 3691 2791 
L 3691 2019 
L 1391 2019 
L 1391 772 
L 3950 772 
L 3950 0 
L 466 0 
z
" transform="scale(0.015625)"/>
      <path id="Arial-BoldMT-6e" d="M 3478 0 
L 2600 0 
L 2600 1694 
Q 2600 2231 2544 2389 
Q 2488 2547 2361 2634 
Q 2234 2722 2056 2722 
Q 1828 2722 1647 2597 
Q 1466 2472 1398 2265 
Q 1331 2059 1331 1503 
L 1331 0 
L 453 0 
L 453 3319 
L 1269 3319 
L 1269 2831 
Q 1703 3394 2363 3394 
Q 2653 3394 2893 3289 
Q 3134 3184 3257 3021 
Q 3381 2859 3429 2653 
Q 3478 2447 3478 2063 
L 3478 0 
z
" transform="scale(0.015625)"/>
      <path id="Arial-BoldMT-74" d="M 1981 3319 
L 1981 2619 
L 1381 2619 
L 1381 1281 
Q 1381 875 1398 808 
Q 1416 741 1477 697 
Q 1538 653 1625 653 
Q 1747 653 1978 738 
L 2053 56 
Q 1747 -75 1359 -75 
Q 1122 -75 931 4 
Q 741 84 652 211 
Q 563 338 528 553 
Q 500 706 500 1172 
L 500 2619 
L 97 2619 
L 97 3319 
L 500 3319 
L 500 3978 
L 1381 4491 
L 1381 3319 
L 1981 3319 
z
" transform="scale(0.015625)"/>
      <path id="Arial-BoldMT-72" d="M 1300 0 
L 422 0 
L 422 3319 
L 1238 3319 
L 1238 2847 
Q 1447 3181 1614 3287 
Q 1781 3394 1994 3394 
Q 2294 3394 2572 3228 
L 2300 2463 
Q 2078 2606 1888 2606 
Q 1703 2606 1575 2504 
Q 1447 2403 1373 2137 
Q 1300 1872 1300 1025 
L 1300 0 
z
" transform="scale(0.015625)"/>
      <path id="Arial-BoldMT-79" d="M 44 3319 
L 978 3319 
L 1772 963 
L 2547 3319 
L 3456 3319 
L 2284 125 
L 2075 -453 
Q 1959 -744 1854 -897 
Q 1750 -1050 1614 -1145 
Q 1478 -1241 1279 -1294 
Q 1081 -1347 831 -1347 
Q 578 -1347 334 -1294 
L 256 -606 
Q 463 -647 628 -647 
Q 934 -647 1081 -467 
Q 1228 -288 1306 -9 
L 44 3319 
z
" transform="scale(0.015625)"/>
      <path id="Arial-BoldMT-20" transform="scale(0.015625)"/>
      <path id="Arial-BoldMT-31" d="M 2519 0 
L 1641 0 
L 1641 3309 
Q 1159 2859 506 2644 
L 506 3441 
Q 850 3553 1253 3867 
Q 1656 4181 1806 4600 
L 2519 4600 
L 2519 0 
z
" transform="scale(0.015625)"/>
     </defs>
     <use xlink:href="#Arial-BoldMT-45"/>
     <use xlink:href="#Arial-BoldMT-6e" transform="translate(66.699219 0)"/>
     <use xlink:href="#Arial-BoldMT-74" transform="translate(127.783203 0)"/>
     <use xlink:href="#Arial-BoldMT-72" transform="translate(161.083984 0)"/>
     <use xlink:href="#Arial-BoldMT-79" transform="translate(200 0)"/>
     <use xlink:href="#Arial-BoldMT-20" transform="translate(255.615234 0)"/>
     <use xlink:href="#Arial-BoldMT-31" transform="translate(283.398438 0)"/>
    </g>
   </g>
   <g id="text_2">
    <!-- H1 = SHA256(...) -->
    <g style="fill: #ffffff" transform="translate(50.293438 152.20125) scale(0.07 -0.07)">
     <defs>
      <path id="Arial-ItalicMT-48" d="M 269 0 
L 1228 4581 
L 1838 4581 
L 1441 2678 
L 3816 2678 
L 4213 4581 
L 4825 4581 
L 3869 0 
L 3256 0 
L 3706 2159 
L 1334 2159 
L 881 0 
L 269 0 
z
" transform="scale(0.015625)"/>
      <path id="Arial-ItalicMT-31" d="M 1541 0 
L 2266 3459 
Q 1797 3091 947 2869 
L 1053 3381 
Q 1475 3550 1886 3822 
Q 2297 4094 2503 4297 
Q 2628 4422 2741 4600 
L 3069 4600 
L 2109 0 
L 1541 0 
z
" transform="scale(0.015625)"/>
      <path id="Arial-ItalicMT-20" transform="scale(0.015625)"/>
      <path id="Arial-ItalicMT-3d" d="M 3600 2694 
L 575 2694 
L 575 3219 
L 3600 3219 
L 3600 2694 
z
M 3600 1303 
L 575 1303 
L 575 1828 
L 3600 1828 
L 3600 1303 
z
" transform="scale(0.015625)"/>
      <path id="Arial-ItalicMT-53" d="M 450 1481 
L 1050 1538 
L 1044 1378 
Q 1044 1113 1166 892 
Q 1288 672 1569 551 
Q 1850 431 2238 431 
Q 2788 431 3077 672 
Q 3366 913 3366 1222 
Q 3366 1438 3213 1616 
Q 3056 1791 2359 2091 
Q 1819 2325 1622 2450 
Q 1313 2653 1166 2892 
Q 1019 3131 1019 3438 
Q 1019 3791 1212 4075 
Q 1406 4359 1779 4509 
Q 2153 4659 2622 4659 
Q 3181 4659 3565 4471 
Q 3950 4284 4123 3971 
Q 4297 3659 4297 3375 
Q 4297 3347 4294 3281 
L 3703 3234 
Q 3703 3428 3669 3538 
Q 3606 3728 3475 3859 
Q 3344 3991 3114 4070 
Q 2884 4150 2600 4150 
Q 2100 4150 1822 3925 
Q 1609 3753 1609 3469 
Q 1609 3300 1696 3167 
Q 1784 3034 2013 2906 
Q 2175 2816 2784 2547 
Q 3278 2328 3466 2203 
Q 3716 2038 3850 1802 
Q 3984 1566 3984 1266 
Q 3984 894 3757 580 
Q 3531 266 3131 94 
Q 2731 -78 2216 -78 
Q 1438 -78 945 261 
Q 453 600 450 1481 
z
" transform="scale(0.015625)"/>
      <path id="Arial-ItalicMT-41" d="M -128 0 
L 2469 4581 
L 3191 4581 
L 3947 0 
L 3353 0 
L 3131 1319 
L 1278 1319 
L 544 0 
L -128 0 
z
M 1541 1791 
L 3056 1791 
L 2878 2941 
Q 2775 3625 2750 4081 
Q 2594 3688 2294 3147 
L 1541 1791 
z
" transform="scale(0.015625)"/>
      <path id="Arial-ItalicMT-32" d="M 375 0 
Q 463 409 617 686 
Q 772 963 1028 1211 
Q 1284 1459 2016 2044 
Q 2459 2397 2622 2566 
Q 2856 2809 2963 3044 
Q 3034 3203 3034 3391 
Q 3034 3706 2811 3926 
Q 2588 4147 2263 4147 
Q 1941 4147 1700 3923 
Q 1459 3700 1356 3206 
L 803 3288 
Q 884 3897 1276 4248 
Q 1669 4600 2253 4600 
Q 2644 4600 2961 4437 
Q 3278 4275 3437 3981 
Q 3597 3688 3597 3375 
Q 3597 2919 3272 2497 
Q 3072 2234 2097 1463 
Q 1678 1131 1473 918 
Q 1269 706 1166 519 
L 3216 519 
L 3106 0 
L 375 0 
z
" transform="scale(0.015625)"/>
      <path id="Arial-ItalicMT-35" d="M 447 1309 
L 1022 1366 
Q 1016 1244 1016 1219 
Q 1016 1013 1120 803 
Q 1225 594 1404 483 
Q 1584 372 1784 372 
Q 2047 372 2319 553 
Q 2591 734 2759 1081 
Q 2928 1428 2928 1769 
Q 2928 2153 2701 2384 
Q 2475 2616 2106 2616 
Q 1859 2616 1639 2497 
Q 1419 2378 1228 2141 
L 734 2175 
L 1425 4519 
L 3663 4519 
L 3553 4000 
L 1813 4000 
L 1469 2834 
Q 1663 2975 1867 3045 
Q 2072 3116 2288 3116 
Q 2813 3116 3150 2769 
Q 3488 2422 3488 1819 
Q 3488 1291 3256 845 
Q 3025 400 2620 161 
Q 2216 -78 1747 -78 
Q 1353 -78 1050 100 
Q 747 278 595 590 
Q 444 903 444 1216 
Q 444 1247 447 1309 
z
" transform="scale(0.015625)"/>
      <path id="Arial-ItalicMT-36" d="M 1288 2656 
Q 1525 2853 1761 2951 
Q 1997 3050 2228 3050 
Q 2750 3050 3090 2694 
Q 3431 2338 3431 1734 
Q 3431 956 2925 400 
Q 2488 -78 1863 -78 
Q 1294 -78 914 339 
Q 534 756 534 1528 
Q 534 2219 778 2956 
Q 966 3522 1242 3889 
Q 1519 4256 1830 4428 
Q 2141 4600 2531 4600 
Q 3000 4600 3297 4308 
Q 3594 4016 3634 3472 
L 3109 3422 
Q 3066 3794 2898 3959 
Q 2731 4125 2491 4125 
Q 2238 4125 1981 3928 
Q 1725 3731 1540 3345 
Q 1356 2959 1288 2656 
z
M 1091 1288 
Q 1091 900 1331 636 
Q 1572 372 1875 372 
Q 2088 372 2325 533 
Q 2563 694 2728 1022 
Q 2894 1350 2894 1675 
Q 2894 2094 2664 2345 
Q 2434 2597 2109 2597 
Q 1734 2597 1412 2230 
Q 1091 1863 1091 1288 
z
" transform="scale(0.015625)"/>
      <path id="Arial-ItalicMT-28" d="M 1031 -1347 
Q 541 -272 541 863 
Q 541 1619 739 2270 
Q 938 2922 1344 3559 
Q 1613 3984 2203 4659 
L 2644 4659 
Q 2278 4269 1870 3559 
Q 1463 2850 1278 2165 
Q 1094 1481 1094 791 
Q 1094 -241 1453 -1347 
L 1031 -1347 
z
" transform="scale(0.015625)"/>
      <path id="Arial-ItalicMT-2e" d="M 369 0 
L 503 641 
L 1144 641 
L 1006 0 
L 369 0 
z
" transform="scale(0.015625)"/>
      <path id="Arial-ItalicMT-29" d="M 1269 4659 
Q 1763 3584 1763 2453 
Q 1763 1694 1564 1044 
Q 1366 394 959 -247 
Q 688 -672 100 -1347 
L -341 -1347 
Q 22 -953 431 -243 
Q 841 466 1023 1148 
Q 1206 1831 1206 2525 
Q 1206 3556 847 4659 
L 1269 4659 
z
" transform="scale(0.015625)"/>
     </defs>
     <use xlink:href="#Arial-ItalicMT-48"/>
     <use xlink:href="#Arial-ItalicMT-31" transform="translate(72.216797 0)"/>
     <use xlink:href="#Arial-ItalicMT-20" transform="translate(127.832031 0)"/>
     <use xlink:href="#Arial-ItalicMT-3d" transform="translate(155.615234 0)"/>
     <use xlink:href="#Arial-ItalicMT-20" transform="translate(214.013672 0)"/>
     <use xlink:href="#Arial-ItalicMT-53" transform="translate(241.796875 0)"/>
     <use xlink:href="#Arial-ItalicMT-48" transform="translate(308.496094 0)"/>
     <use xlink:href="#Arial-ItalicMT-41" transform="translate(380.712891 0)"/>
     <use xlink:href="#Arial-ItalicMT-32" transform="translate(447.412109 0)"/>
     <use xlink:href="#Arial-ItalicMT-35" transform="translate(503.027344 0)"/>
     <use xlink:href="#Arial-ItalicMT-36" transform="translate(558.642578 0)"/>
     <use xlink:href="#Arial-ItalicMT-28" transform="translate(614.257812 0)"/>
     <use xlink:href="#Arial-ItalicMT-2e" transform="translate(647.558594 0)"/>
     <use xlink:href="#Arial-ItalicMT-2e" transform="translate(675.341797 0)"/>
     <use xlink:href="#Arial-ItalicMT-2e" transform="translate(703.125 0)"/>
     <use xlink:href="#Arial-ItalicMT-29" transform="translate(730.908203 0)"/>
    </g>
   </g>
   <g id="patch_5">
    <path d="M 141.893499 140.4 
Q 181.79759 140.4 219.465612 140.4 
" style="fill: none; stroke: #e94f37; stroke-width: 2; stroke-linecap: round"/>
    <path d="M 215.465612 138.4 
L 219.465612 140.4 
L 215.465612 142.4 
" style="fill: none; stroke: #e94f37; stroke-width: 2; stroke-linecap: round"/>
   </g>
   <g id="text_3">
    <!-- Entry 2 -->
    <g style="fill: #ffffff" transform="translate(269.61 122.961406) scale(0.1 -0.1)">
     <defs>
      <path id="Arial-BoldMT-32" d="M 3238 816 
L 3238 0 
L 159 0 
Q 209 463 459 877 
Q 709 1291 1447 1975 
Q 2041 2528 2175 2725 
Q 2356 2997 2356 3263 
Q 2356 3556 2198 3714 
Q 2041 3872 1763 3872 
Q 1488 3872 1325 3706 
Q 1163 3541 1138 3156 
L 263 3244 
Q 341 3969 753 4284 
Q 1166 4600 1784 4600 
Q 2463 4600 2850 4234 
Q 3238 3869 3238 3325 
Q 3238 3016 3127 2736 
Q 3016 2456 2775 2150 
Q 2616 1947 2200 1565 
Q 1784 1184 1673 1059 
Q 1563 934 1494 816 
L 3238 816 
z
" transform="scale(0.015625)"/>
     </defs>
     <use xlink:href="#Arial-BoldMT-45"/>
     <use xlink:href="#Arial-BoldMT-6e" transform="translate(66.699219 0)"/>
     <use xlink:href="#Arial-BoldMT-74" transform="translate(127.783203 0)"/>
     <use xlink:href="#Arial-BoldMT-72" transform="translate(161.083984 0)"/>
     <use xlink:href="#Arial-BoldMT-79" transform="translate(200 0)"/>
     <use xlink:href="#Arial-BoldMT-20" transform="translate(255.615234 0)"/>
     <use xlink:href="#Arial-BoldMT-32" transform="translate(283.398438 0)"/>
    </g>
   </g>
   <g id="text_4">
    <!-- H2 = SHA256(H1||E2) -->
    <g style="fill: #ffffff" transform="translate(252.156641 152.20125) scale(0.07 -0.07)">
     <defs>
      <path id="Arial-ItalicMT-7c" d="M 588 -1347 
L 588 4659 
L 1078 4659 
L 1078 -1347 
L 588 -1347 
z
" transform="scale(0.015625)"/>
      <path id="Arial-ItalicMT-45" d="M 288 0 
L 1247 4581 
L 4553 4581 
L 4444 4059 
L 1750 4059 
L 1450 2634 
L 4075 2634 
L 3966 2113 
L 1341 2113 
L 1009 519 
L 3894 519 
L 3784 0 
L 288 0 
z
" transform="scale(0.015625)"/>
     </defs>
     <use xlink:href="#Arial-ItalicMT-48"/>
     <use xlink:href="#Arial-ItalicMT-32" transform="translate(72.216797 0)"/>
     <use xlink:href="#Arial-ItalicMT-20" transform="translate(127.832031 0)"/>
     <use xlink:href="#Arial-ItalicMT-3d" transform="translate(155.615234 0)"/>
     <use xlink:href="#Arial-ItalicMT-20" transform="translate(214.013672 0)"/>
     <use xlink:href="#Arial-ItalicMT-53" transform="translate(241.796875 0)"/>
     <use xlink:href="#Arial-ItalicMT-48" transform="translate(308.496094 0)"/>
     <use xlink:href="#Arial-ItalicMT-41" transform="translate(380.712891 0)"/>
     <use xlink:href="#Arial-ItalicMT-32" transform="translate(447.412109 0)"/>
     <use xlink:href="#Arial-ItalicMT-35" transform="translate(503.027344 0)"/>
     <use xlink:href="#Arial-ItalicMT-36" transform="translate(558.642578 0)"/>
     <use xlink:href="#Arial-ItalicMT-28" transform="translate(614.257812 0)"/>
     <use xlink:href="#Arial-ItalicMT-48" transform="translate(647.558594 0)"/>
     <use xlink:href="#Arial-ItalicMT-31" transform="translate(719.775391 0)"/>
     <use xlink:href="#Arial-ItalicMT-7c" transform="translate(775.390625 0)"/>
     <use xlink:href="#Arial-ItalicMT-7c" transform="translate(801.367188 0)"/>
     <use xlink:href="#Arial-ItalicMT-45" transform="translate(827.34375 0)"/>
     <use xlink:href="#Arial-ItalicMT-32" transform="translate(894.042969 0)"/>
     <use xlink:href="#Arial-ItalicMT-29" transform="translate(949.658203 0)"/>
    </g>
   </g>
   <g id="patch_6">
    <path d="M 351.413499 140.4 
Q 391.31759 140.4 428.985612 140.4 
" style="fill: none; stroke: #e94f37; stroke-width: 2; stroke-linecap: round"/>
    <path d="M 424.985612 138.4 
L 428.985612 140.4 
L 424.985612 142.4 
" style="fill: none; stroke: #e94f37; stroke-width: 2; stroke-linecap: round"/>
   </g>
   <g id="text_5">
    <!-- Entry 3 -->
    <g style="fill: #ffffff" transform="translate(479.13 122.961406) scale(0.1 -0.1)">
     <defs>
      <path id="Arial-BoldMT-33" d="M 241 1216 
L 1091 1319 
Q 1131 994 1309 822 
Q 1488 650 1741 650 
Q 2013 650 2198 856 
Q 2384 1063 2384 1413 
Q 2384 1744 2206 1937 
Q 2028 2131 1772 2131 
Q 1603 2131 1369 2066 
L 1466 2781 
Q 1822 2772 2009 2936 
Q 2197 3100 2197 3372 
Q 2197 3603 2059 3740 
Q 1922 3878 1694 3878 
Q 1469 3878 1309 3722 
Q 1150 3566 1116 3266 
L 306 3403 
Q 391 3819 561 4067 
Q 731 4316 1036 4458 
Q 1341 4600 1719 4600 
Q 2366 4600 2756 4188 
Q 3078 3850 3078 3425 
Q 3078 2822 2419 2463 
Q 2813 2378 3048 2084 
Q 3284 1791 3284 1375 
Q 3284 772 2843 347 
Q 2403 -78 1747 -78 
Q 1125 -78 715 280 
Q 306 638 241 1216 
z
" transform="scale(0.015625)"/>
     </defs>
     <use xlink:href="#Arial-BoldMT-45"/>
     <use xlink:href="#Arial-BoldMT-6e" transform="translate(66.699219 0)"/>
     <use xlink:href="#Arial-BoldMT-74" transform="translate(127.783203 0)"/>
     <use xlink:href="#Arial-BoldMT-72" transform="translate(161.083984 0)"/>
     <use xlink:href="#Arial-BoldMT-79" transform="translate(200 0)"/>
     <use xlink:href="#Arial-BoldMT-20" transform="translate(255.615234 0)"/>
     <use xlink:href="#Arial-BoldMT-33" transform="translate(283.398438 0)"/>
    </g>
   </g>
   <g id="text_6">
    <!-- H3 = SHA256(H2||E3) -->
    <g style="fill: #ffffff" transform="translate(461.676641 152.20125) scale(0.07 -0.07)">
     <defs>
      <path id="Arial-ItalicMT-33" d="M 350 1200 
L 900 1269 
Q 963 788 1177 580 
Q 1391 372 1738 372 
Q 2156 372 2461 672 
Q 2766 972 2766 1359 
Q 2766 1697 2537 1917 
Q 2309 2138 1925 2138 
Q 1881 2138 1744 2125 
L 1841 2597 
Q 1922 2584 1997 2584 
Q 2481 2584 2742 2820 
Q 3003 3056 3003 3400 
Q 3003 3716 2789 3931 
Q 2575 4147 2266 4147 
Q 1963 4147 1720 3926 
Q 1478 3706 1409 3303 
L 853 3416 
Q 991 3981 1381 4290 
Q 1772 4600 2306 4600 
Q 2869 4600 3217 4259 
Q 3566 3919 3566 3422 
Q 3566 3059 3377 2789 
Q 3188 2519 2809 2341 
Q 3078 2181 3211 1956 
Q 3344 1731 3344 1441 
Q 3344 825 2883 373 
Q 2422 -78 1781 -78 
Q 1159 -78 776 270 
Q 394 619 350 1200 
z
" transform="scale(0.015625)"/>
     </defs>
     <use xlink:href="#Arial-ItalicMT-48"/>
     <use xlink:href="#Arial-ItalicMT-33" transform="translate(72.216797 0)"/>
     <use xlink:href="#Arial-ItalicMT-20" transform="translate(127.832031 0)"/>
     <use xlink:href="#Arial-ItalicMT-3d" transform="translate(155.615234 0)"/>
     <use xlink:href="#Arial-ItalicMT-20" transform="translate(214.013672 0)"/>
     <use xlink:href="#Arial-ItalicMT-53" transform="translate(241.796875 0)"/>
     <use xlink:href="#Arial-ItalicMT-48" transform="translate(308.496094 0)"/>
     <use xlink:href="#Arial-ItalicMT-41" transform="translate(380.712891 0)"/>
     <use xlink:href="#Arial-ItalicMT-32" transform="translate(447.412109 0)"/>
     <use xlink:href="#Arial-ItalicMT-35" transform="translate(503.027344 0)"/>
     <use xlink:href="#Arial-ItalicMT-36" transform="translate(558.642578 0)"/>
     <use xlink:href="#Arial-ItalicMT-28" transform="translate(614.257812 0)"/>
     <use xlink:href="#Arial-ItalicMT-48" transform="translate(647.558594 0)"/>
     <use xlink:href="#Arial-ItalicMT-32" transform="translate(719.775391 0)"/>
     <use xlink:href="#Arial-ItalicMT-7c" transform="translate(775.390625 0)"/>
     <use xlink:href="#Arial-ItalicMT-7c" transform="translate(801.367188 0)"/>
     <use xlink:href="#Arial-ItalicMT-45" transform="translate(827.34375 0)"/>
     <use xlink:href="#Arial-ItalicMT-33" transform="translate(894.042969 0)"/>
     <use xlink:href="#Arial-ItalicMT-29" transform="translate(949.658203 0)"/>
    </g>
   </g>
   <g id="text_7">
    <!-- Tamper-Evident Audit Log (Hash Chain) -->
    <g style="fill: #262626" transform="translate(243.405938 43.605) scale(0.12 -0.12)">
     <defs>
      <path id="Arial-BoldMT-54" d="M 1497 0 
L 1497 3806 
L 138 3806 
L 138 4581 
L 3778 4581 
L 3778 3806 
L 2422 3806 
L 2422 0 
L 1497 0 
z
" transform="scale(0.015625)"/>
      <path id="Arial-BoldMT-61" d="M 1116 2306 
L 319 2450 
Q 453 2931 781 3162 
Q 1109 3394 1756 3394 
Q 2344 3394 2631 3255 
Q 2919 3116 3036 2902 
Q 3153 2688 3153 2116 
L 3144 1091 
Q 3144 653 3186 445 
Q 3228 238 3344 0 
L 2475 0 
Q 2441 88 2391 259 
Q 2369 338 2359 363 
Q 2134 144 1878 34 
Q 1622 -75 1331 -75 
Q 819 -75 523 203 
Q 228 481 228 906 
Q 228 1188 362 1408 
Q 497 1628 739 1745 
Q 981 1863 1438 1950 
Q 2053 2066 2291 2166 
L 2291 2253 
Q 2291 2506 2166 2614 
Q 2041 2722 1694 2722 
Q 1459 2722 1328 2630 
Q 1197 2538 1116 2306 
z
M 2291 1594 
Q 2122 1538 1756 1459 
Q 1391 1381 1278 1306 
Q 1106 1184 1106 997 
Q 1106 813 1243 678 
Q 1381 544 1594 544 
Q 1831 544 2047 700 
Q 2206 819 2256 991 
Q 2291 1103 2291 1419 
L 2291 1594 
z
" transform="scale(0.015625)"/>
      <path id="Arial-BoldMT-6d" d="M 394 3319 
L 1203 3319 
L 1203 2866 
Q 1638 3394 2238 3394 
Q 2556 3394 2790 3262 
Q 3025 3131 3175 2866 
Q 3394 3131 3647 3262 
Q 3900 3394 4188 3394 
Q 4553 3394 4806 3245 
Q 5059 3097 5184 2809 
Q 5275 2597 5275 2122 
L 5275 0 
L 4397 0 
L 4397 1897 
Q 4397 2391 4306 2534 
Q 4184 2722 3931 2722 
Q 3747 2722 3584 2609 
Q 3422 2497 3350 2280 
Q 3278 2063 3278 1594 
L 3278 0 
L 2400 0 
L 2400 1819 
Q 2400 2303 2353 2443 
Q 2306 2584 2207 2653 
Q 2109 2722 1941 2722 
Q 1738 2722 1575 2612 
Q 1413 2503 1342 2297 
Q 1272 2091 1272 1613 
L 1272 0 
L 394 0 
L 394 3319 
z
" transform="scale(0.015625)"/>
      <path id="Arial-BoldMT-70" d="M 434 3319 
L 1253 3319 
L 1253 2831 
Q 1413 3081 1684 3237 
Q 1956 3394 2288 3394 
Q 2866 3394 3269 2941 
Q 3672 2488 3672 1678 
Q 3672 847 3265 386 
Q 2859 -75 2281 -75 
Q 2006 -75 1782 34 
Q 1559 144 1313 409 
L 1313 -1263 
L 434 -1263 
L 434 3319 
z
M 1303 1716 
Q 1303 1156 1525 889 
Q 1747 622 2066 622 
Q 2372 622 2575 867 
Q 2778 1113 2778 1672 
Q 2778 2194 2568 2447 
Q 2359 2700 2050 2700 
Q 1728 2700 1515 2451 
Q 1303 2203 1303 1716 
z
" transform="scale(0.015625)"/>
      <path id="Arial-BoldMT-65" d="M 2381 1056 
L 3256 909 
Q 3088 428 2723 176 
Q 2359 -75 1813 -75 
Q 947 -75 531 491 
Q 203 944 203 1634 
Q 203 2459 634 2926 
Q 1066 3394 1725 3394 
Q 2466 3394 2894 2905 
Q 3322 2416 3303 1406 
L 1103 1406 
Q 1113 1016 1316 798 
Q 1519 581 1822 581 
Q 2028 581 2168 693 
Q 2309 806 2381 1056 
z
M 2431 1944 
Q 2422 2325 2234 2523 
Q 2047 2722 1778 2722 
Q 1491 2722 1303 2513 
Q 1116 2303 1119 1944 
L 2431 1944 
z
" transform="scale(0.015625)"/>
      <path id="Arial-BoldMT-2d" d="M 359 1222 
L 359 2100 
L 2084 2100 
L 2084 1222 
L 359 1222 
z
" transform="scale(0.015625)"/>
      <path id="Arial-BoldMT-76" d="M 1372 0 
L 34 3319 
L 956 3319 
L 1581 1625 
L 1763 1059 
Q 1834 1275 1853 1344 
Q 1897 1484 1947 1625 
L 2578 3319 
L 3481 3319 
L 2163 0 
L 1372 0 
z
" transform="scale(0.015625)"/>
      <path id="Arial-BoldMT-69" d="M 459 3769 
L 459 4581 
L 1338 4581 
L 1338 3769 
L 459 3769 
z
M 459 0 
L 459 3319 
L 1338 3319 
L 1338 0 
L 459 0 
z
" transform="scale(0.015625)"/>
      <path id="Arial-BoldMT-64" d="M 3503 0 
L 2688 0 
L 2688 488 
Q 2484 203 2207 64 
Q 1931 -75 1650 -75 
Q 1078 -75 670 386 
Q 263 847 263 1672 
Q 263 2516 659 2955 
Q 1056 3394 1663 3394 
Q 2219 3394 2625 2931 
L 2625 4581 
L 3503 4581 
L 3503 0 
z
M 1159 1731 
Q 1159 1200 1306 963 
Q 1519 619 1900 619 
Q 2203 619 2415 876 
Q 2628 1134 2628 1647 
Q 2628 2219 2422 2470 
Q 2216 2722 1894 2722 
Q 1581 2722 1370 2473 
Q 1159 2225 1159 1731 
z
" transform="scale(0.015625)"/>
      <path id="Arial-BoldMT-41" d="M 4597 0 
L 3591 0 
L 3191 1041 
L 1359 1041 
L 981 0 
L 0 0 
L 1784 4581 
L 2763 4581 
L 4597 0 
z
M 2894 1813 
L 2263 3513 
L 1644 1813 
L 2894 1813 
z
" transform="scale(0.015625)"/>
      <path id="Arial-BoldMT-75" d="M 2644 0 
L 2644 497 
Q 2463 231 2167 78 
Q 1872 -75 1544 -75 
Q 1209 -75 943 72 
Q 678 219 559 484 
Q 441 750 441 1219 
L 441 3319 
L 1319 3319 
L 1319 1794 
Q 1319 1094 1367 936 
Q 1416 778 1544 686 
Q 1672 594 1869 594 
Q 2094 594 2272 717 
Q 2450 841 2515 1023 
Q 2581 1206 2581 1919 
L 2581 3319 
L 3459 3319 
L 3459 0 
L 2644 0 
z
" transform="scale(0.015625)"/>
      <path id="Arial-BoldMT-4c" d="M 491 0 
L 491 4544 
L 1416 4544 
L 1416 772 
L 3716 772 
L 3716 0 
L 491 0 
z
" transform="scale(0.015625)"/>
      <path id="Arial-BoldMT-6f" d="M 256 1706 
Q 256 2144 472 2553 
Q 688 2963 1083 3178 
Q 1478 3394 1966 3394 
Q 2719 3394 3200 2905 
Q 3681 2416 3681 1669 
Q 3681 916 3195 420 
Q 2709 -75 1972 -75 
Q 1516 -75 1102 131 
Q 688 338 472 736 
Q 256 1134 256 1706 
z
M 1156 1659 
Q 1156 1166 1390 903 
Q 1625 641 1969 641 
Q 2313 641 2545 903 
Q 2778 1166 2778 1666 
Q 2778 2153 2545 2415 
Q 2313 2678 1969 2678 
Q 1625 2678 1390 2415 
Q 1156 2153 1156 1659 
z
" transform="scale(0.015625)"/>
      <path id="Arial-BoldMT-67" d="M 378 -219 
L 1381 -341 
Q 1406 -516 1497 -581 
Q 1622 -675 1891 -675 
Q 2234 -675 2406 -572 
Q 2522 -503 2581 -350 
Q 2622 -241 2622 53 
L 2622 538 
Q 2228 0 1628 0 
Q 959 0 569 566 
Q 263 1013 263 1678 
Q 263 2513 664 2953 
Q 1066 3394 1663 3394 
Q 2278 3394 2678 2853 
L 2678 3319 
L 3500 3319 
L 3500 341 
Q 3500 -247 3403 -537 
Q 3306 -828 3131 -993 
Q 2956 -1159 2664 -1253 
Q 2372 -1347 1925 -1347 
Q 1081 -1347 728 -1058 
Q 375 -769 375 -325 
Q 375 -281 378 -219 
z
M 1163 1728 
Q 1163 1200 1367 954 
Q 1572 709 1872 709 
Q 2194 709 2416 961 
Q 2638 1213 2638 1706 
Q 2638 2222 2425 2472 
Q 2213 2722 1888 2722 
Q 1572 2722 1367 2476 
Q 1163 2231 1163 1728 
z
" transform="scale(0.015625)"/>
      <path id="Arial-BoldMT-28" d="M 1916 -1347 
L 1313 -1347 
Q 834 -625 584 153 
Q 334 931 334 1659 
Q 334 2563 644 3369 
Q 913 4069 1325 4659 
L 1925 4659 
Q 1497 3713 1336 3048 
Q 1175 2384 1175 1641 
Q 1175 1128 1270 590 
Q 1366 53 1531 -431 
Q 1641 -750 1916 -1347 
z
" transform="scale(0.015625)"/>
      <path id="Arial-BoldMT-48" d="M 469 0 
L 469 4581 
L 1394 4581 
L 1394 2778 
L 3206 2778 
L 3206 4581 
L 4131 4581 
L 4131 0 
L 3206 0 
L 3206 2003 
L 1394 2003 
L 1394 0 
L 469 0 
z
" transform="scale(0.015625)"/>
      <path id="Arial-BoldMT-73" d="M 150 947 
L 1031 1081 
Q 1088 825 1259 692 
Q 1431 559 1741 559 
Q 2081 559 2253 684 
Q 2369 772 2369 919 
Q 2369 1019 2306 1084 
Q 2241 1147 2013 1200 
Q 950 1434 666 1628 
Q 272 1897 272 2375 
Q 272 2806 612 3100 
Q 953 3394 1669 3394 
Q 2350 3394 2681 3172 
Q 3013 2950 3138 2516 
L 2309 2363 
Q 2256 2556 2107 2659 
Q 1959 2763 1684 2763 
Q 1338 2763 1188 2666 
Q 1088 2597 1088 2488 
Q 1088 2394 1175 2328 
Q 1294 2241 1995 2081 
Q 2697 1922 2975 1691 
Q 3250 1456 3250 1038 
Q 3250 581 2869 253 
Q 2488 -75 1741 -75 
Q 1063 -75 667 200 
Q 272 475 150 947 
z
" transform="scale(0.015625)"/>
      <path id="Arial-BoldMT-68" d="M 1334 4581 
L 1334 2897 
Q 1759 3394 2350 3394 
Q 2653 3394 2897 3281 
Q 3141 3169 3264 2994 
Q 3388 2819 3433 2606 
Q 3478 2394 3478 1947 
L 3478 0 
L 2600 0 
L 2600 1753 
Q 2600 2275 2550 2415 
Q 2500 2556 2373 2639 
Q 2247 2722 2056 2722 
Q 1838 2722 1666 2615 
Q 1494 2509 1414 2295 
Q 1334 2081 1334 1663 
L 1334 0 
L 456 0 
L 456 4581 
L 1334 4581 
z
" transform="scale(0.015625)"/>
      <path id="Arial-BoldMT-43" d="M 3397 1684 
L 4294 1400 
Q 4088 650 3608 286 
Q 3128 -78 2391 -78 
Q 1478 -78 890 545 
Q 303 1169 303 2250 
Q 303 3394 893 4026 
Q 1484 4659 2447 4659 
Q 3288 4659 3813 4163 
Q 4125 3869 4281 3319 
L 3366 3100 
Q 3284 3456 3026 3662 
Q 2769 3869 2400 3869 
Q 1891 3869 1573 3503 
Q 1256 3138 1256 2319 
Q 1256 1450 1568 1081 
Q 1881 713 2381 713 
Q 2750 713 3015 947 
Q 3281 1181 3397 1684 
z
" transform="scale(0.015625)"/>
      <path id="Arial-BoldMT-29" d="M 216 -1347 
Q 475 -791 581 -494 
Q 688 -197 778 190 
Q 869 578 912 926 
Q 956 1275 956 1641 
Q 956 2384 797 3048 
Q 638 3713 209 4659 
L 806 4659 
Q 1278 3988 1539 3234 
Q 1800 2481 1800 1706 
Q 1800 1053 1594 306 
Q 1359 -531 822 -1347 
L 216 -1347 
z
" transform="scale(0.015625)"/>
     </defs>
     <use xlink:href="#Arial-BoldMT-54"/>
     <use xlink:href="#Arial-BoldMT-61" transform="translate(53.708984 0)"/>
     <use xlink:href="#Arial-BoldMT-6d" transform="translate(109.324219 0)"/>
     <use xlink:href="#Arial-BoldMT-70" transform="translate(198.240234 0)"/>
     <use xlink:href="#Arial-BoldMT-65" transform="translate(259.324219 0)"/>
     <use xlink:href="#Arial-BoldMT-72" transform="translate(314.939453 0)"/>
     <use xlink:href="#Arial-BoldMT-2d" transform="translate(353.855469 0)"/>
     <use xlink:href="#Arial-BoldMT-45" transform="translate(387.15625 0)"/>
     <use xlink:href="#Arial-BoldMT-76" transform="translate(453.855469 0)"/>
     <use xlink:href="#Arial-BoldMT-69" transform="translate(509.470703 0)"/>
     <use xlink:href="#Arial-BoldMT-64" transform="translate(537.253906 0)"/>
     <use xlink:href="#Arial-BoldMT-65" transform="translate(598.337891 0)"/>
     <use xlink:href="#Arial-BoldMT-6e" transform="translate(653.953125 0)"/>
     <use xlink:href="#Arial-BoldMT-74" transform="translate(715.037109 0)"/>
     <use xlink:href="#Arial-BoldMT-20" transform="translate(748.337891 0)"/>
     <use xlink:href="#Arial-BoldMT-41" transform="translate(772.371094 0)"/>
     <use xlink:href="#Arial-BoldMT-75" transform="translate(844.587891 0)"/>
     <use xlink:href="#Arial-BoldMT-64" transform="translate(905.671875 0)"/>
     <use xlink:href="#Arial-BoldMT-69" transform="translate(966.755859 0)"/>
     <use xlink:href="#Arial-BoldMT-74" transform="translate(994.539062 0)"/>
     <use xlink:href="#Arial-BoldMT-20" transform="translate(1027.839844 0)"/>
     <use xlink:href="#Arial-BoldMT-4c" transform="translate(1055.623047 0)"/>
     <use xlink:href="#Arial-BoldMT-6f" transform="translate(1116.707031 0)"/>
     <use xlink:href="#Arial-BoldMT-67" transform="translate(1177.791016 0)"/>
     <use xlink:href="#Arial-BoldMT-20" transform="translate(1238.875 0)"/>
     <use xlink:href="#Arial-BoldMT-28" transform="translate(1266.658203 0)"/>
     <use xlink:href="#Arial-BoldMT-48" transform="translate(1299.958984 0)"/>
     <use xlink:href="#Arial-BoldMT-61" transform="translate(1372.175781 0)"/>
     <use xlink:href="#Arial-BoldMT-73" transform="translate(1427.791016 0)"/>
     <use xlink:href="#Arial-BoldMT-68" transform="translate(1483.40625 0)"/>
     <use xlink:href="#Arial-BoldMT-20" transform="translate(1544.490234 0)"/>
     <use xlink:href="#Arial-BoldMT-43" transform="translate(1572.273438 0)"/>
     <use xlink:href="#Arial-BoldMT-68" transform="translate(1644.490234 0)"/>
     <use xlink:href="#Arial-BoldMT-61" transform="translate(1705.574219 0)"/>
     <use xlink:href="#Arial-BoldMT-69" transform="translate(1761.189453 0)"/>
     <use xlink:href="#Arial-BoldMT-6e" transform="translate(1788.972656 0)"/>
     <use xlink:href="#Arial-BoldMT-29" transform="translate(1850.056641 0)"/>
    </g>
   </g>
   <g id="text_8">
    <!-- Each entry hash includes the previous hash, creating an immutable chain -->
    <g style="fill: #555555" transform="translate(210.575391 242.573906) scale(0.09 -0.09)">
     <defs>
      <path id="Arial-ItalicMT-61" d="M 2450 413 
Q 2156 159 1884 42 
Q 1613 -75 1303 -75 
Q 844 -75 562 195 
Q 281 466 281 888 
Q 281 1166 407 1380 
Q 534 1594 743 1723 
Q 953 1853 1256 1909 
Q 1447 1947 1980 1969 
Q 2513 1991 2744 2081 
Q 2809 2313 2809 2466 
Q 2809 2663 2666 2775 
Q 2469 2931 2091 2931 
Q 1734 2931 1507 2773 
Q 1281 2616 1178 2325 
L 606 2375 
Q 781 2869 1161 3131 
Q 1541 3394 2119 3394 
Q 2734 3394 3094 3100 
Q 3369 2881 3369 2531 
Q 3369 2266 3291 1916 
L 3106 1091 
Q 3019 697 3019 450 
Q 3019 294 3088 0 
L 2516 0 
Q 2469 163 2450 413 
z
M 2659 1681 
Q 2541 1634 2405 1609 
Q 2269 1584 1950 1556 
Q 1456 1513 1253 1445 
Q 1050 1378 947 1231 
Q 844 1084 844 906 
Q 844 669 1008 516 
Q 1172 363 1475 363 
Q 1756 363 2015 511 
Q 2275 659 2425 925 
Q 2575 1191 2659 1681 
z
" transform="scale(0.015625)"/>
      <path id="Arial-ItalicMT-63" d="M 2503 1209 
L 3069 1150 
Q 2856 528 2464 226 
Q 2072 -75 1572 -75 
Q 1031 -75 695 275 
Q 359 625 359 1253 
Q 359 1797 575 2322 
Q 791 2847 1192 3120 
Q 1594 3394 2109 3394 
Q 2644 3394 2956 3092 
Q 3269 2791 3269 2294 
L 2713 2256 
Q 2709 2572 2529 2750 
Q 2350 2928 2056 2928 
Q 1716 2928 1466 2712 
Q 1216 2497 1073 2058 
Q 931 1619 931 1213 
Q 931 788 1118 575 
Q 1306 363 1581 363 
Q 1856 363 2107 572 
Q 2359 781 2503 1209 
z
" transform="scale(0.015625)"/>
      <path id="Arial-ItalicMT-68" d="M 213 0 
L 1169 4581 
L 1734 4581 
L 1369 2822 
Q 1684 3128 1956 3261 
Q 2228 3394 2516 3394 
Q 2928 3394 3156 3176 
Q 3384 2959 3384 2603 
Q 3384 2428 3284 1959 
L 2875 0 
L 2309 0 
L 2731 2009 
Q 2822 2447 2822 2559 
Q 2822 2722 2709 2825 
Q 2597 2928 2384 2928 
Q 2078 2928 1800 2767 
Q 1522 2606 1364 2326 
Q 1206 2047 1075 1425 
L 778 0 
L 213 0 
z
" transform="scale(0.015625)"/>
      <path id="Arial-ItalicMT-65" d="M 2650 1128 
L 3200 1072 
Q 3081 663 2654 294 
Q 2228 -75 1638 -75 
Q 1269 -75 961 95 
Q 653 266 492 591 
Q 331 916 331 1331 
Q 331 1875 582 2386 
Q 834 2897 1234 3145 
Q 1634 3394 2100 3394 
Q 2694 3394 3048 3025 
Q 3403 2656 3403 2019 
Q 3403 1775 3359 1519 
L 916 1519 
Q 903 1422 903 1344 
Q 903 878 1117 633 
Q 1331 388 1641 388 
Q 1931 388 2212 578 
Q 2494 769 2650 1128 
z
M 1006 1950 
L 2869 1950 
Q 2872 2038 2872 2075 
Q 2872 2500 2659 2726 
Q 2447 2953 2113 2953 
Q 1750 2953 1451 2703 
Q 1153 2453 1006 1950 
z
" transform="scale(0.015625)"/>
      <path id="Arial-ItalicMT-6e" d="M 213 0 
L 906 3319 
L 1419 3319 
L 1297 2741 
Q 1631 3081 1922 3237 
Q 2213 3394 2516 3394 
Q 2919 3394 3148 3175 
Q 3378 2956 3378 2591 
Q 3378 2406 3297 2009 
L 2875 0 
L 2309 0 
L 2750 2103 
Q 2816 2409 2816 2556 
Q 2816 2722 2702 2825 
Q 2588 2928 2372 2928 
Q 1938 2928 1598 2615 
Q 1259 2303 1100 1544 
L 778 0 
L 213 0 
z
" transform="scale(0.015625)"/>
      <path id="Arial-ItalicMT-74" d="M 1534 459 
L 1441 -3 
Q 1238 -56 1047 -56 
Q 709 -56 509 109 
Q 359 234 359 450 
Q 359 559 441 953 
L 844 2881 
L 397 2881 
L 488 3319 
L 934 3319 
L 1106 4134 
L 1753 4525 
L 1500 3319 
L 2056 3319 
L 1963 2881 
L 1409 2881 
L 1025 1047 
Q 953 697 953 628 
Q 953 528 1011 475 
Q 1069 422 1200 422 
Q 1388 422 1534 459 
z
" transform="scale(0.015625)"/>
      <path id="Arial-ItalicMT-72" d="M 213 0 
L 906 3319 
L 1406 3319 
L 1266 2641 
Q 1522 3025 1767 3209 
Q 2013 3394 2269 3394 
Q 2438 3394 2684 3272 
L 2453 2747 
Q 2306 2853 2131 2853 
Q 1834 2853 1521 2522 
Q 1209 2191 1031 1331 
L 750 0 
L 213 0 
z
" transform="scale(0.015625)"/>
      <path id="Arial-ItalicMT-79" d="M 0 -1281 
L 34 -750 
Q 209 -800 375 -800 
Q 547 -800 653 -722 
Q 791 -619 953 -334 
L 1134 -9 
L 581 3319 
L 1138 3319 
L 1388 1641 
Q 1463 1144 1516 647 
L 3000 3319 
L 3591 3319 
L 1475 -441 
Q 1169 -991 931 -1169 
Q 694 -1347 384 -1347 
Q 188 -1347 0 -1281 
z
" transform="scale(0.015625)"/>
      <path id="Arial-ItalicMT-73" d="M 266 1134 
L 831 1169 
Q 831 925 906 753 
Q 981 581 1182 472 
Q 1384 363 1653 363 
Q 2028 363 2215 513 
Q 2403 663 2403 866 
Q 2403 1013 2291 1144 
Q 2175 1275 1726 1467 
Q 1278 1659 1153 1738 
Q 944 1866 837 2039 
Q 731 2213 731 2438 
Q 731 2831 1043 3112 
Q 1356 3394 1919 3394 
Q 2544 3394 2870 3105 
Q 3197 2816 3209 2344 
L 2656 2306 
Q 2644 2606 2444 2781 
Q 2244 2956 1878 2956 
Q 1584 2956 1421 2822 
Q 1259 2688 1259 2531 
Q 1259 2375 1400 2256 
Q 1494 2175 1884 2006 
Q 2534 1725 2703 1563 
Q 2972 1303 2972 931 
Q 2972 684 2820 446 
Q 2669 209 2358 67 
Q 2047 -75 1625 -75 
Q 1050 -75 647 209 
Q 244 494 266 1134 
z
" transform="scale(0.015625)"/>
      <path id="Arial-ItalicMT-69" d="M 1016 3941 
L 1150 4581 
L 1713 4581 
L 1578 3941 
L 1016 3941 
z
M 191 0 
L 884 3319 
L 1450 3319 
L 756 0 
L 191 0 
z
" transform="scale(0.015625)"/>
      <path id="Arial-ItalicMT-6c" d="M 169 0 
L 1125 4581 
L 1691 4581 
L 734 0 
L 169 0 
z
" transform="scale(0.015625)"/>
      <path id="Arial-ItalicMT-75" d="M 2478 600 
Q 1881 -75 1256 -75 
Q 872 -75 636 145 
Q 400 366 400 684 
Q 400 894 506 1403 
L 906 3319 
L 1472 3319 
L 1028 1197 
Q 972 931 972 784 
Q 972 597 1086 492 
Q 1200 388 1422 388 
Q 1659 388 1886 503 
Q 2113 619 2277 816 
Q 2441 1013 2544 1281 
Q 2613 1453 2703 1884 
L 3003 3319 
L 3569 3319 
L 2875 0 
L 2353 0 
L 2478 600 
z
" transform="scale(0.015625)"/>
      <path id="Arial-ItalicMT-64" d="M 2450 481 
Q 1966 -75 1438 -75 
Q 966 -75 652 273 
Q 338 622 338 1284 
Q 338 1891 586 2392 
Q 834 2894 1207 3144 
Q 1581 3394 1956 3394 
Q 2575 3394 2891 2797 
L 3266 4581 
L 3828 4581 
L 2872 0 
L 2350 0 
L 2450 481 
z
M 900 1391 
Q 900 1044 969 844 
Q 1038 644 1203 511 
Q 1369 378 1600 378 
Q 1984 378 2297 778 
Q 2716 1309 2716 2091 
Q 2716 2484 2509 2706 
Q 2303 2928 1991 2928 
Q 1788 2928 1620 2837 
Q 1453 2747 1289 2530 
Q 1125 2313 1012 1978 
Q 900 1644 900 1391 
z
" transform="scale(0.015625)"/>
      <path id="Arial-ItalicMT-70" d="M -66 -1272 
L 894 3319 
L 1416 3319 
L 1319 2856 
Q 1609 3159 1839 3276 
Q 2069 3394 2325 3394 
Q 2800 3394 3112 3048 
Q 3425 2703 3425 2059 
Q 3425 1541 3253 1114 
Q 3081 688 2831 428 
Q 2581 169 2325 47 
Q 2069 -75 1800 -75 
Q 1203 -75 875 531 
L 500 -1272 
L -66 -1272 
z
M 1053 1356 
Q 1053 984 1106 841 
Q 1184 638 1362 513 
Q 1541 388 1775 388 
Q 2263 388 2563 936 
Q 2863 1484 2863 2056 
Q 2863 2478 2661 2708 
Q 2459 2938 2159 2938 
Q 1944 2938 1759 2823 
Q 1575 2709 1417 2482 
Q 1259 2256 1156 1928 
Q 1053 1600 1053 1356 
z
" transform="scale(0.015625)"/>
      <path id="Arial-ItalicMT-76" d="M 1050 0 
L 506 3319 
L 1056 3319 
L 1341 1491 
Q 1388 1191 1456 513 
Q 1619 866 1872 1322 
L 2981 3319 
L 3578 3319 
L 1678 0 
L 1050 0 
z
" transform="scale(0.015625)"/>
      <path id="Arial-ItalicMT-6f" d="M 313 1259 
Q 313 2231 884 2869 
Q 1356 3394 2122 3394 
Q 2722 3394 3089 3019 
Q 3456 2644 3456 2006 
Q 3456 1434 3225 942 
Q 2994 450 2567 187 
Q 2141 -75 1669 -75 
Q 1281 -75 964 90 
Q 647 256 480 559 
Q 313 863 313 1259 
z
M 878 1316 
Q 878 847 1103 605 
Q 1328 363 1675 363 
Q 1856 363 2034 436 
Q 2213 509 2366 659 
Q 2519 809 2626 1001 
Q 2734 1194 2800 1416 
Q 2897 1725 2897 2009 
Q 2897 2459 2670 2707 
Q 2444 2956 2100 2956 
Q 1834 2956 1615 2829 
Q 1397 2703 1220 2459 
Q 1044 2216 961 1892 
Q 878 1569 878 1316 
z
" transform="scale(0.015625)"/>
      <path id="Arial-ItalicMT-2c" d="M 347 0 
L 481 641 
L 1125 641 
L 1009 81 
Q 903 -422 679 -656 
Q 456 -891 153 -925 
L 206 -678 
Q 578 -575 697 0 
L 347 0 
z
" transform="scale(0.015625)"/>
      <path id="Arial-ItalicMT-67" d="M 181 -300 
L 753 -353 
Q 747 -547 800 -644 
Q 853 -741 969 -794 
Q 1122 -863 1366 -863 
Q 1878 -863 2103 -597 
Q 2250 -419 2375 178 
L 2431 447 
Q 1991 0 1494 0 
Q 991 0 652 370 
Q 313 741 313 1419 
Q 313 1978 580 2447 
Q 847 2916 1215 3155 
Q 1584 3394 1975 3394 
Q 2628 3394 2981 2775 
L 3094 3319 
L 3613 3319 
L 2944 116 
Q 2834 -413 2656 -708 
Q 2478 -1003 2161 -1165 
Q 1844 -1328 1428 -1328 
Q 1028 -1328 739 -1225 
Q 450 -1122 308 -923 
Q 166 -725 166 -469 
Q 166 -391 181 -300 
z
M 888 1469 
Q 888 1128 953 956 
Q 1047 716 1220 589 
Q 1394 463 1606 463 
Q 1884 463 2159 658 
Q 2434 853 2604 1262 
Q 2775 1672 2775 2044 
Q 2775 2453 2548 2695 
Q 2322 2938 1988 2938 
Q 1781 2938 1587 2827 
Q 1394 2716 1226 2489 
Q 1059 2263 973 1947 
Q 888 1631 888 1469 
z
" transform="scale(0.015625)"/>
      <path id="Arial-ItalicMT-6d" d="M 209 0 
L 903 3319 
L 1469 3319 
L 1353 2772 
Q 1669 3125 1917 3259 
Q 2166 3394 2456 3394 
Q 2766 3394 2973 3230 
Q 3181 3066 3247 2772 
Q 3500 3084 3779 3239 
Q 4059 3394 4369 3394 
Q 4784 3394 4992 3197 
Q 5200 3000 5200 2644 
Q 5200 2491 5128 2138 
L 4681 0 
L 4116 0 
L 4572 2194 
Q 4631 2463 4631 2578 
Q 4631 2741 4528 2834 
Q 4425 2928 4238 2928 
Q 3984 2928 3721 2775 
Q 3459 2622 3314 2373 
Q 3169 2125 3059 1609 
L 2722 0 
L 2156 0 
L 2625 2241 
Q 2675 2469 2675 2566 
Q 2675 2728 2573 2828 
Q 2472 2928 2309 2928 
Q 2069 2928 1805 2775 
Q 1541 2622 1375 2348 
Q 1209 2075 1103 1569 
L 775 0 
L 209 0 
z
" transform="scale(0.015625)"/>
      <path id="Arial-ItalicMT-62" d="M 213 0 
L 1169 4581 
L 1734 4581 
L 1394 2944 
Q 1663 3191 1881 3292 
Q 2100 3394 2338 3394 
Q 2803 3394 3114 3047 
Q 3425 2700 3425 2038 
Q 3425 1597 3300 1231 
Q 3175 866 2990 617 
Q 2806 369 2609 220 
Q 2413 72 2206 -1 
Q 2000 -75 1809 -75 
Q 1481 -75 1231 98 
Q 981 272 841 628 
L 709 0 
L 213 0 
z
M 1050 1363 
L 1047 1256 
Q 1047 831 1250 609 
Q 1453 388 1756 388 
Q 2053 388 2301 595 
Q 2550 803 2709 1243 
Q 2869 1684 2869 2056 
Q 2869 2475 2667 2706 
Q 2466 2938 2169 2938 
Q 1863 2938 1606 2702 
Q 1350 2466 1178 1975 
Q 1050 1609 1050 1363 
z
" transform="scale(0.015625)"/>
     </defs>
     <use xlink:href="#Arial-ItalicMT-45"/>
     <use xlink:href="#Arial-ItalicMT-61" transform="translate(66.699219 0)"/>
     <use xlink:href="#Arial-ItalicMT-63" transform="translate(122.314453 0)"/>
     <use xlink:href="#Arial-ItalicMT-68" transform="translate(172.314453 0)"/>
     <use xlink:href="#Arial-ItalicMT-20" transform="translate(227.929688 0)"/>
     <use xlink:href="#Arial-ItalicMT-65" transform="translate(255.712891 0)"/>
     <use xlink:href="#Arial-ItalicMT-6e" transform="translate(311.328125 0)"/>
     <use xlink:href="#Arial-ItalicMT-74" transform="translate(366.943359 0)"/>
     <use xlink:href="#Arial-ItalicMT-72" transform="translate(394.726562 0)"/>
     <use xlink:href="#Arial-ItalicMT-79" transform="translate(428.027344 0)"/>
     <use xlink:href="#Arial-ItalicMT-20" transform="translate(478.027344 0)"/>
     <use xlink:href="#Arial-ItalicMT-68" transform="translate(505.810547 0)"/>
     <use xlink:href="#Arial-ItalicMT-61" transform="translate(561.425781 0)"/>
     <use xlink:href="#Arial-ItalicMT-73" transform="translate(617.041016 0)"/>
     <use xlink:href="#Arial-ItalicMT-68" transform="translate(667.041016 0)"/>
     <use xlink:href="#Arial-ItalicMT-20" transform="translate(722.65625 0)"/>
     <use xlink:href="#Arial-ItalicMT-69" transform="translate(750.439453 0)"/>
     <use xlink:href="#Arial-ItalicMT-6e" transform="translate(772.65625 0)"/>
     <use xlink:href="#Arial-ItalicMT-63" transform="translate(828.271484 0)"/>
     <use xlink:href="#Arial-ItalicMT-6c" transform="translate(878.271484 0)"/>
     <use xlink:href="#Arial-ItalicMT-75" transform="translate(900.488281 0)"/>
     <use xlink:href="#Arial-ItalicMT-64" transform="translate(956.103516 0)"/>
     <use xlink:href="#Arial-ItalicMT-65" transform="translate(1011.71875 0)"/>
     <use xlink:href="#Arial-ItalicMT-73" transform="translate(1067.333984 0)"/>
     <use xlink:href="#Arial-ItalicMT-20" transform="translate(1117.333984 0)"/>
     <use xlink:href="#Arial-ItalicMT-74" transform="translate(1145.117188 0)"/>
     <use xlink:href="#Arial-ItalicMT-68" transform="translate(1172.900391 0)"/>
     <use xlink:href="#Arial-ItalicMT-65" transform="translate(1228.515625 0)"/>
     <use xlink:href="#Arial-ItalicMT-20" transform="translate(1284.130859 0)"/>
     <use xlink:href="#Arial-ItalicMT-70" transform="translate(1311.914062 0)"/>
     <use xlink:href="#Arial-ItalicMT-72" transform="translate(1367.529297 0)"/>
     <use xlink:href="#Arial-ItalicMT-65" transform="translate(1400.830078 0)"/>
     <use xlink:href="#Arial-ItalicMT-76" transform="translate(1456.445312 0)"/>
     <use xlink:href="#Arial-ItalicMT-69" transform="translate(1506.445312 0)"/>
     <use xlink:href="#Arial-ItalicMT-6f" transform="translate(1528.662109 0)"/>
     <use xlink:href="#Arial-ItalicMT-75" transform="translate(1584.277344 0)"/>
     <use xlink:href="#Arial-ItalicMT-73" transform="translate(1639.892578 0)"/>
     <use xlink:href="#Arial-ItalicMT-20" transform="translate(1689.892578 0)"/>
     <use xlink:href="#Arial-ItalicMT-68" transform="translate(1717.675781 0)"/>
     <use xlink:href="#Arial-ItalicMT-61" transform="translate(1773.291016 0)"/>
     <use xlink:href="#Arial-ItalicMT-73" transform="translate(1828.90625 0)"/>
     <use xlink:href="#Arial-ItalicMT-68" transform="translate(1878.90625 0)"/>
     <use xlink:href="#Arial-ItalicMT-2c" transform="translate(1934.521484 0)"/>
     <use xlink:href="#Arial-ItalicMT-20" transform="translate(1962.304688 0)"/>
     <use xlink:href="#Arial-ItalicMT-63" transform="translate(1990.087891 0)"/>
     <use xlink:href="#Arial-ItalicMT-72" transform="translate(2040.087891 0)"/>
     <use xlink:href="#Arial-ItalicMT-65" transform="translate(2073.388672 0)"/>
     <use xlink:href="#Arial-ItalicMT-61" transform="translate(2129.003906 0)"/>
     <use xlink:href="#Arial-ItalicMT-74" transform="translate(2184.619141 0)"/>
     <use xlink:href="#Arial-ItalicMT-69" transform="translate(2212.402344 0)"/>
     <use xlink:href="#Arial-ItalicMT-6e" transform="translate(2234.619141 0)"/>
     <use xlink:href="#Arial-ItalicMT-67" transform="translate(2290.234375 0)"/>
     <use xlink:href="#Arial-ItalicMT-20" transform="translate(2345.849609 0)"/>
     <use xlink:href="#Arial-ItalicMT-61" transform="translate(2373.632812 0)"/>
     <use xlink:href="#Arial-ItalicMT-6e" transform="translate(2429.248047 0)"/>
     <use xlink:href="#Arial-ItalicMT-20" transform="translate(2484.863281 0)"/>
     <use xlink:href="#Arial-ItalicMT-69" transform="translate(2512.646484 0)"/>
     <use xlink:href="#Arial-ItalicMT-6d" transform="translate(2534.863281 0)"/>
     <use xlink:href="#Arial-ItalicMT-6d" transform="translate(2618.164062 0)"/>
     <use xlink:href="#Arial-ItalicMT-75" transform="translate(2701.464844 0)"/>
     <use xlink:href="#Arial-ItalicMT-74" transform="translate(2757.080078 0)"/>
     <use xlink:href="#Arial-ItalicMT-61" transform="translate(2784.863281 0)"/>
     <use xlink:href="#Arial-ItalicMT-62" transform="translate(2840.478516 0)"/>
     <use xlink:href="#Arial-ItalicMT-6c" transform="translate(2896.09375 0)"/>
     <use xlink:href="#Arial-ItalicMT-65" transform="translate(2918.310547 0)"/>
     <use xlink:href="#Arial-ItalicMT-20" transform="translate(2973.925781 0)"/>
     <use xlink:href="#Arial-ItalicMT-63" transform="translate(3001.708984 0)"/>
     <use xlink:href="#Arial-ItalicMT-68" transform="translate(3051.708984 0)"/>
     <use xlink:href="#Arial-ItalicMT-61" transform="translate(3107.324219 0)"/>
     <use xlink:href="#Arial-ItalicMT-69" transform="translate(3162.939453 0)"/>
     <use xlink:href="#Arial-ItalicMT-6e" transform="translate(3185.15625 0)"/>
    </g>
   </g>
  </g>
 </g>
 <defs>
  <clipPath id="p1c94910b71">
   <rect x="7.2" y="7.2" width="698.4" height="266.4"/>
  </clipPath>
 </defs>
</svg>
